<svg xmlns="http://www.w3.org/2000/svg" viewBox="0 0 900 420"><defs><linearGradient id="a" x1="0" x2="1"><stop stop-color="#fff0f3"/><stop offset="1" stop-color="#eef7ff"/></linearGradient></defs><rect width="900" height="420" rx="34" fill="url(#a)"/><path d="M240 70C240 70 120 205 120 270c0 72 54 110 120 110s120-38 120-110c0-65-120-200-120-200z" fill="#d64b67"/><circle cx="207" cy="254" r="24" fill="#ffdfe6"/><circle cx="272" cy="290" r="16" fill="#ffdfe6"/><rect x="470" y="92" width="275" height="226" rx="24" fill="#fff" stroke="#dce6ef" stroke-width="6"/><path d="M530 190h155M530 235h120M530 280h165" stroke="#6c86a0" stroke-width="14" stroke-linecap="round"/><circle cx="710" cy="138" r="30" fill="#e9f7ef"/><path d="M695 138l12 12 22-29" fill="none" stroke="#2e8b63" stroke-width="9" stroke-linecap="round" stroke-linejoin="round"/><text x="470" y="355" font-family="Arial" font-size="28" font-weight="700" fill="#36536c">Community donor planning</text></svg>
